<svg width="150" height="50" viewBox="0 0 150 50" fill="none" xmlns="http://www.w3.org/2000/svg">
<path d="M31.9403 30.68C31.0643 30.68 30.2903 30.566 29.6183 30.338C28.9583 30.11 28.4003 29.774 27.9443 29.33C27.4883 28.874 27.1463 28.31 26.9183 27.638C26.6903 26.966 26.5763 26.186 26.5763 25.298V18.836C26.5763 18.44 26.6723 18.146 26.8643 17.954C27.0683 17.762 27.3563 17.666 27.7283 17.666C28.1003 17.666 28.3823 17.762 28.5743 17.954C28.7783 18.146 28.8803 18.44 28.8803 18.836V25.28C28.8803 26.42 29.1383 27.278 29.6543 27.854C30.1823 28.418 30.9443 28.7 31.9403 28.7C32.9363 28.7 33.6923 28.418 34.2083 27.854C34.7243 27.278 34.9823 26.42 34.9823 25.28V18.836C34.9823 18.44 35.0783 18.146 35.2703 17.954C35.4743 17.762 35.7623 17.666 36.1343 17.666C36.4943 17.666 36.7703 17.762 36.9623 17.954C37.1663 18.146 37.2683 18.44 37.2683 18.836V25.298C37.2683 26.474 37.0643 27.464 36.6563 28.268C36.2603 29.072 35.6663 29.678 34.8743 30.086C34.0823 30.482 33.1043 30.68 31.9403 30.68ZM40.8553 33.884C40.4953 33.884 40.2193 33.788 40.0273 33.596C39.8353 33.404 39.7393 33.122 39.7393 32.75V22.688C39.7393 22.316 39.8353 22.034 40.0273 21.842C40.2193 21.65 40.4893 21.554 40.8373 21.554C41.1973 21.554 41.4733 21.65 41.6653 21.842C41.8573 22.034 41.9533 22.316 41.9533 22.688V24.092L41.7553 23.552C41.9353 22.94 42.3013 22.448 42.8533 22.076C43.4173 21.704 44.0713 21.518 44.8153 21.518C45.5833 21.518 46.2553 21.704 46.8313 22.076C47.4193 22.448 47.8753 22.976 48.1993 23.66C48.5233 24.332 48.6853 25.142 48.6853 26.09C48.6853 27.026 48.5233 27.842 48.1993 28.538C47.8753 29.222 47.4253 29.75 46.8493 30.122C46.2733 30.494 45.5953 30.68 44.8153 30.68C44.0833 30.68 43.4413 30.5 42.8893 30.14C42.3373 29.768 41.9653 29.288 41.7733 28.7H41.9893V32.75C41.9893 33.122 41.8873 33.404 41.6833 33.596C41.4913 33.788 41.2153 33.884 40.8553 33.884ZM44.1853 28.97C44.6293 28.97 45.0193 28.862 45.3553 28.646C45.6913 28.43 45.9493 28.112 46.1293 27.692C46.3213 27.26 46.4173 26.726 46.4173 26.09C46.4173 25.13 46.2133 24.416 45.8053 23.948C45.3973 23.468 44.8573 23.228 44.1853 23.228C43.7413 23.228 43.3513 23.336 43.0153 23.552C42.6793 23.756 42.4153 24.074 42.2233 24.506C42.0433 24.926 41.9533 25.454 41.9533 26.09C41.9533 27.038 42.1573 27.758 42.5653 28.25C42.9733 28.73 43.5133 28.97 44.1853 28.97ZM53.5383 30.68C52.5423 30.68 51.7923 30.398 51.2883 29.834C50.7843 29.258 50.5323 28.418 50.5323 27.314V18.8C50.5323 18.428 50.6283 18.146 50.8203 17.954C51.0123 17.762 51.2883 17.666 51.6483 17.666C52.0083 17.666 52.2843 17.762 52.4763 17.954C52.6803 18.146 52.7823 18.428 52.7823 18.8V27.206C52.7823 27.758 52.8963 28.166 53.1243 28.43C53.3643 28.694 53.7003 28.826 54.1323 28.826C54.2283 28.826 54.3183 28.826 54.4023 28.826C54.4863 28.814 54.5703 28.802 54.6543 28.79C54.8223 28.766 54.9363 28.814 54.9963 28.934C55.0563 29.042 55.0863 29.27 55.0863 29.618C55.0863 29.918 55.0263 30.152 54.9063 30.32C54.7863 30.488 54.5883 30.59 54.3123 30.626C54.1923 30.638 54.0663 30.65 53.9343 30.662C53.8023 30.674 53.6703 30.68 53.5383 30.68ZM60.2065 30.68C59.2945 30.68 58.5025 30.494 57.8305 30.122C57.1585 29.75 56.6365 29.222 56.2645 28.538C55.8925 27.842 55.7065 27.026 55.7065 26.09C55.7065 25.382 55.8085 24.752 56.0125 24.2C56.2285 23.636 56.5345 23.156 56.9305 22.76C57.3265 22.352 57.8005 22.046 58.3525 21.842C58.9045 21.626 59.5225 21.518 60.2065 21.518C61.1185 21.518 61.9105 21.704 62.5825 22.076C63.2545 22.448 63.7765 22.976 64.1485 23.66C64.5205 24.344 64.7065 25.154 64.7065 26.09C64.7065 26.798 64.5985 27.434 64.3825 27.998C64.1785 28.562 63.8785 29.048 63.4825 29.456C63.0865 29.852 62.6125 30.158 62.0605 30.374C61.5085 30.578 60.8905 30.68 60.2065 30.68ZM60.2065 28.97C60.6505 28.97 61.0405 28.862 61.3765 28.646C61.7125 28.43 61.9705 28.112 62.1505 27.692C62.3425 27.26 62.4385 26.726 62.4385 26.09C62.4385 25.13 62.2345 24.416 61.8265 23.948C61.4185 23.468 60.8785 23.228 60.2065 23.228C59.7625 23.228 59.3725 23.336 59.0365 23.552C58.7005 23.756 58.4365 24.074 58.2445 24.506C58.0645 24.926 57.9745 25.454 57.9745 26.09C57.9745 27.038 58.1785 27.758 58.5865 28.25C58.9945 28.73 59.5345 28.97 60.2065 28.97ZM69.4616 30.68C68.8256 30.68 68.2556 30.56 67.7516 30.32C67.2596 30.068 66.8696 29.732 66.5816 29.312C66.3056 28.892 66.1676 28.418 66.1676 27.89C66.1676 27.242 66.3356 26.732 66.6716 26.36C67.0076 25.976 67.5536 25.7 68.3096 25.532C69.0656 25.364 70.0796 25.28 71.3516 25.28H72.2516V26.576H71.3696C70.6256 26.576 70.0316 26.612 69.5876 26.684C69.1436 26.756 68.8256 26.882 68.6336 27.062C68.4536 27.23 68.3636 27.47 68.3636 27.782C68.3636 28.178 68.5016 28.502 68.7776 28.754C69.0536 29.006 69.4376 29.132 69.9296 29.132C70.3256 29.132 70.6736 29.042 70.9736 28.862C71.2856 28.67 71.5316 28.412 71.7116 28.088C71.8916 27.764 71.9816 27.392 71.9816 26.972V24.902C71.9816 24.302 71.8496 23.87 71.5856 23.606C71.3216 23.342 70.8776 23.21 70.2536 23.21C69.9056 23.21 69.5276 23.252 69.1196 23.336C68.7236 23.42 68.3036 23.564 67.8596 23.768C67.6316 23.876 67.4276 23.906 67.2476 23.858C67.0796 23.81 66.9476 23.714 66.8516 23.57C66.7556 23.414 66.7076 23.246 66.7076 23.066C66.7076 22.886 66.7556 22.712 66.8516 22.544C66.9476 22.364 67.1096 22.232 67.3376 22.148C67.8896 21.92 68.4176 21.758 68.9216 21.662C69.4376 21.566 69.9056 21.518 70.3256 21.518C71.1896 21.518 71.8976 21.65 72.4496 21.914C73.0136 22.178 73.4336 22.58 73.7096 23.12C73.9856 23.648 74.1236 24.332 74.1236 25.172V29.492C74.1236 29.864 74.0336 30.152 73.8536 30.356C73.6736 30.548 73.4156 30.644 73.0796 30.644C72.7436 30.644 72.4796 30.548 72.2876 30.356C72.1076 30.152 72.0176 29.864 72.0176 29.492V28.628H72.1616C72.0776 29.048 71.9096 29.414 71.6576 29.726C71.4176 30.026 71.1116 30.26 70.7396 30.428C70.3676 30.596 69.9416 30.68 69.4616 30.68ZM79.7913 30.68C79.0233 30.68 78.3453 30.494 77.7573 30.122C77.1813 29.75 76.7313 29.222 76.4073 28.538C76.0833 27.842 75.9213 27.026 75.9213 26.09C75.9213 25.142 76.0833 24.332 76.4073 23.66C76.7313 22.976 77.1813 22.448 77.7573 22.076C78.3453 21.704 79.0233 21.518 79.7913 21.518C80.5233 21.518 81.1593 21.698 81.6993 22.058C82.2513 22.418 82.6233 22.892 82.8153 23.48H82.6173V18.8C82.6173 18.428 82.7133 18.146 82.9053 17.954C83.0973 17.762 83.3733 17.666 83.7333 17.666C84.0933 17.666 84.3693 17.762 84.5613 17.954C84.7653 18.146 84.8673 18.428 84.8673 18.8V29.492C84.8673 29.864 84.7713 30.152 84.5793 30.356C84.3873 30.548 84.1113 30.644 83.7513 30.644C83.3913 30.644 83.1153 30.548 82.9233 30.356C82.7313 30.152 82.6353 29.864 82.6353 29.492V28.088L82.8333 28.628C82.6533 29.252 82.2873 29.75 81.7353 30.122C81.1833 30.494 80.5353 30.68 79.7913 30.68ZM80.4213 28.97C80.8653 28.97 81.2553 28.862 81.5913 28.646C81.9273 28.43 82.1853 28.112 82.3653 27.692C82.5573 27.26 82.6533 26.726 82.6533 26.09C82.6533 25.13 82.4493 24.416 82.0413 23.948C81.6333 23.468 81.0933 23.228 80.4213 23.228C79.9773 23.228 79.5873 23.336 79.2513 23.552C78.9153 23.756 78.6513 24.074 78.4593 24.506C78.2793 24.926 78.1893 25.454 78.1893 26.09C78.1893 27.038 78.3933 27.758 78.8013 28.25C79.2093 28.73 79.7493 28.97 80.4213 28.97ZM93.815 30.644C93.455 30.644 93.173 30.548 92.969 30.356C92.777 30.152 92.681 29.864 92.681 29.492V23.39H91.853C91.565 23.39 91.343 23.318 91.187 23.174C91.031 23.018 90.953 22.808 90.953 22.544C90.953 22.268 91.031 22.058 91.187 21.914C91.343 21.77 91.565 21.698 91.853 21.698H93.329L92.681 22.292V21.68C92.681 20.444 92.993 19.52 93.617 18.908C94.241 18.284 95.141 17.918 96.317 17.81L96.929 17.756C97.169 17.732 97.361 17.774 97.505 17.882C97.649 17.978 97.745 18.11 97.793 18.278C97.841 18.434 97.847 18.596 97.811 18.764C97.775 18.932 97.697 19.082 97.577 19.214C97.469 19.334 97.325 19.4 97.145 19.412L96.893 19.43C96.209 19.478 95.711 19.652 95.399 19.952C95.087 20.252 94.931 20.708 94.931 21.32V21.986L94.643 21.698H96.461C96.749 21.698 96.971 21.77 97.127 21.914C97.283 22.058 97.361 22.268 97.361 22.544C97.361 22.808 97.283 23.018 97.127 23.174C96.971 23.318 96.749 23.39 96.461 23.39H94.931V29.492C94.931 30.26 94.559 30.644 93.815 30.644ZM102.429 30.68C101.517 30.68 100.725 30.494 100.053 30.122C99.3811 29.75 98.8591 29.222 98.4871 28.538C98.1151 27.842 97.9291 27.026 97.9291 26.09C97.9291 25.382 98.0311 24.752 98.2351 24.2C98.4511 23.636 98.7571 23.156 99.1531 22.76C99.5491 22.352 100.023 22.046 100.575 21.842C101.127 21.626 101.745 21.518 102.429 21.518C103.341 21.518 104.133 21.704 104.805 22.076C105.477 22.448 105.999 22.976 106.371 23.66C106.743 24.344 106.929 25.154 106.929 26.09C106.929 26.798 106.821 27.434 106.605 27.998C106.401 28.562 106.101 29.048 105.705 29.456C105.309 29.852 104.835 30.158 104.283 30.374C103.731 30.578 103.113 30.68 102.429 30.68ZM102.429 28.97C102.873 28.97 103.263 28.862 103.599 28.646C103.935 28.43 104.193 28.112 104.373 27.692C104.565 27.26 104.661 26.726 104.661 26.09C104.661 25.13 104.457 24.416 104.049 23.948C103.641 23.468 103.101 23.228 102.429 23.228C101.985 23.228 101.595 23.336 101.259 23.552C100.923 23.756 100.659 24.074 100.467 24.506C100.287 24.926 100.197 25.454 100.197 26.09C100.197 27.038 100.401 27.758 100.809 28.25C101.217 28.73 101.757 28.97 102.429 28.97ZM112.73 30.68C111.95 30.68 111.296 30.548 110.768 30.284C110.252 30.02 109.868 29.636 109.616 29.132C109.364 28.616 109.238 27.98 109.238 27.224V23.39H108.302C108.014 23.39 107.792 23.318 107.636 23.174C107.48 23.018 107.402 22.808 107.402 22.544C107.402 22.268 107.48 22.058 107.636 21.914C107.792 21.77 108.014 21.698 108.302 21.698H109.238V20.06C109.238 19.688 109.334 19.406 109.526 19.214C109.73 19.022 110.012 18.926 110.372 18.926C110.732 18.926 111.008 19.022 111.2 19.214C111.392 19.406 111.488 19.688 111.488 20.06V21.698H113.396C113.684 21.698 113.906 21.77 114.062 21.914C114.218 22.058 114.296 22.268 114.296 22.544C114.296 22.808 114.218 23.018 114.062 23.174C113.906 23.318 113.684 23.39 113.396 23.39H111.488V27.098C111.488 27.674 111.614 28.106 111.866 28.394C112.118 28.682 112.526 28.826 113.09 28.826C113.294 28.826 113.474 28.808 113.63 28.772C113.786 28.736 113.924 28.712 114.044 28.7C114.188 28.688 114.308 28.736 114.404 28.844C114.5 28.94 114.548 29.144 114.548 29.456C114.548 29.696 114.506 29.912 114.422 30.104C114.35 30.284 114.212 30.41 114.008 30.482C113.852 30.53 113.648 30.572 113.396 30.608C113.144 30.656 112.922 30.68 112.73 30.68ZM119.533 30.68C118.621 30.68 117.829 30.494 117.157 30.122C116.485 29.75 115.963 29.222 115.591 28.538C115.219 27.842 115.033 27.026 115.033 26.09C115.033 25.382 115.135 24.752 115.339 24.2C115.555 23.636 115.861 23.156 116.257 22.76C116.653 22.352 117.127 22.046 117.679 21.842C118.231 21.626 118.849 21.518 119.533 21.518C120.445 21.518 121.237 21.704 121.909 22.076C122.581 22.448 123.103 22.976 123.475 23.66C123.847 24.344 124.033 25.154 124.033 26.09C124.033 26.798 123.925 27.434 123.709 27.998C123.505 28.562 123.205 29.048 122.809 29.456C122.413 29.852 121.939 30.158 121.387 30.374C120.835 30.578 120.217 30.68 119.533 30.68ZM119.533 28.97C119.977 28.97 120.367 28.862 120.703 28.646C121.039 28.43 121.297 28.112 121.477 27.692C121.669 27.26 121.765 26.726 121.765 26.09C121.765 25.13 121.561 24.416 121.153 23.948C120.745 23.468 120.205 23.228 119.533 23.228C119.089 23.228 118.699 23.336 118.363 23.552C118.027 23.756 117.763 24.074 117.571 24.506C117.391 24.926 117.301 25.454 117.301 26.09C117.301 27.038 117.505 27.758 117.913 28.25C118.321 28.73 118.861 28.97 119.533 28.97Z" fill="#444DF2"/>
<rect x="0.5" y="1" width="149" height="48" rx="24" stroke="#797EF3"/>
</svg>
